<?xml version="1.0" encoding="UTF-8"?><svg id="a" xmlns="http://www.w3.org/2000/svg" viewBox="0 0 32 32"><defs><style>.b{fill:orange;}.c{fill:#4169e1;}</style></defs><rect class="b" x="19" y="11.25" width="4" height="15.5" transform="translate(2 40) rotate(-90)"/><path class="c" d="M12.25,1.5h1.5V28c0,1.38-1.12,2.5-2.5,2.5h-1.5V4c0-1.38,1.12-2.5,2.5-2.5Z"/><rect class="b" x="19.25" y="18" width="4" height="10" transform="translate(42.5 46) rotate(-180)"/><path class="c" d="M18.75,1.5h1.5c1.38,0,2.5,1.12,2.5,2.5V15.5h-1.5c-1.38,0-2.5-1.12-2.5-2.5V1.5h0Z" transform="translate(41.5 17) rotate(-180)"/><path class="c" d="M16.75-4h1.5V18.5c0,1.38-1.12,2.5-2.5,2.5h-1.5V-1.5c0-1.38,1.12-2.5,2.5-2.5Z" transform="translate(7.75 24.75) rotate(-90)"/><path class="c" d="M8.65,14.1h1.5v9.8H6.15v-7.3c0-1.38,1.12-2.5,2.5-2.5Z" transform="translate(-10.85 27.15) rotate(-90)"/></svg>